PathFileType	4	(X/Y/Z)	C:/Users/beibeiliu/ov580/test_trc\sequence.25_training_dense_right.trc
DataRate	CameraRate	NumFrames	NumMarkers	Units	OrigDataRate	OrigDataStartFrame	OrigNumFrames
120	120	12	19	mm	120	76	300
Frame#	Time	ThumbCMC			ThumbMCP			ThumbIP			ThumbTip			IndexMCP			IndexPIP			IndexTip			MiddleMCP			MiddlePIP			MiddleTip			RingMCP			RingPIP			RingTip			PinkyMCP			PinkyPIP			PinkyTip			BackHand1			BackHand2			BackHand3	
		X0	Y0	Z0	X1	Y1	Z1	X2	Y2	Z2	X3	Y3	Z3	X4	Y4	Z4	X5	Y5	Z5	X6	Y6	Z6	X7	Y7	Z7	X8	Y8	Z8	X9	Y9	Z9	X10	Y10	Z10	X11	Y11	Z11	X12	Y12	Z12	X13	Y13	Z13	X14	Y14	Z14	X15	Y15	Z15	X16	Y16	Z16	X17	Y17	Z17	X18	Y18	Z18	
75	0.625	200.16	14.624	41.0328	182.154	-12.6717	43.1977	183.404	-36.7327	38.1033	196.937	-61.6552	32.3581	192.784	-30.7556	-6.43792	183.844	-52.8698	-9.62491	173.566	-73.9596	-7.13664	205.164	-40.4432	-3.35883	191.802	-68.0812	8.04457	186.258	-69.4756	40.7443	218.029	-52.0065	18.0264	205.924	-55.1164	38.8603	209.904	-30.9823	54.5174	235.03	-47.5216	27.7126	221.444	-48.7304	48.8242	219.935	-20.7678	55.2824	244.3	-7.18158	14.327	250.391	16.8521	31.4362	221.491	18.2179	15.1053	
76	0.633333	203.761	17.7438	42.7708	182.581	-11.3708	39.1729	183.774	-33.5861	35.1415	193.164	-57.8781	32.0823	195.468	-26.9904	-4.02589	179.66	-48.6698	-8.9425	170.956	-75.5788	-2.3997	201.944	-43.0474	0.198114	189.649	-66.4295	16.5348	184.958	-60.0787	45.867	215.707	-48.2689	18.5113	204.191	-52.035	45.612	209.973	-28.9206	56.2565	231.19	-48.1109	28.7601	218.499	-48.2247	49.6534	217.719	-19.8047	54.7388	243.955	-5.40272	17.9356	254.937	12.3297	28.0946	227.439	19.2337	20.0344	
77	0.641667	204.884	19.0156	42.1606	185.819	-5.9628	42.0462	181.588	-29.3322	35.1988	190.954	-54.4867	32.7339	189	-27.5057	-6.06457	178.237	-48.6384	-6.49092	168.853	-71.2527	-0.668616	200.754	-43.8485	2.27365	184.235	-61.6556	16.5193	184.465	-58.3875	49.213	213.524	-53.548	22.606	200.727	-49.8419	43.5606	206.597	-27.2441	56.6209	231.485	-51.4372	32.3807	218.196	-45.8492	53.6204	222.674	-18.8445	56.3504	243.522	-10.2878	16.8821	256.126	8.02186	30.2087	230.449	14.418	19.5128	
78	0.65	207.912	21.0468	43.3369	184.349	-2.60628	44.5453	178.841	-31.6618	35.0041	191.542	-52.4836	33.5847	193.066	-23.5788	-2.58912	175.503	-43.7152	-6.92867	164.762	-65.8669	-0.477211	202.459	-38.7241	0.472881	185.866	-62.6012	12.3109	177	-62.5717	42.3315	212.526	-50.7342	22.2473	201.335	-49.4085	47.8106	209.785	-25.1056	56.7919	225.917	-52.303	34.0918	216.763	-46.5331	53.5372	219.425	-19.6511	56.2104	245.681	-9.9457	16.0738	257.54	11.491	30.7438	232.134	14.0522	19.0168	
79	0.658333	209.858	19.3297	41.9221	184.937	-2.8058	43.7771	181.997	-24.9718	41.3778	188.212	-49.8141	37.1103	188.57	-23.9638	-4.72388	175.667	-45.2723	-5.2532	157.982	-59.3351	-0.199228	200.158	-37.5066	-0.721409	181.938	-58.8866	8.21002	168.506	-62.4418	40.5898	211.093	-46.5496	20.0356	196.866	-46.4492	45.9637	210.58	-22.9167	56.0271	224.395	-53.8899	34.0177	211.028	-43.3234	50.5217	222.517	-18.3478	57.1004	247.43	-11.5219	17.4956	258.351	7.06428	29.6973	234.413	14.7676	20.5732	
80	0.666667	214.272	20.7732	41.8655	186.889	-3.83473	44.9794	180.717	-26.3119	43.5191	181.335	-51.4819	43.4402	192.368	-24.1221	-4.42267	173.372	-39.3787	-5.27871	156.201	-54.9686	0.408206	199.996	-38.9607	0.322329	180	-58.0076	8.99694	164.14	-58.9802	35.49	209.463	-47.0594	20.2068	194.907	-45.0583	43.3719	208.005	-22.0938	55.6663	220.873	-51.0442	33.095	210.997	-41.1604	54.7696	225.075	-17.7709	55.0802	247.75	-13.4426	18.3461	261.547	2.72051	32.2613	238.145	13.1881	20.7427	
81	0.675	216.677	19.5263	41.8287	190.788	-2.812	49.462	179.859	-24.431	48.647	184.451	-47.8554	47.9701	189.845	-19.6478	-4.60097	171.198	-35.4491	-4.32357	151.741	-50.4871	0.494785	197.997	-40.9396	-0.0265909	175.32	-54.7054	13.3067	162.1	-51.0693	38.6032	206.105	-48.7156	20.7526	191.023	-41.7525	43.7676	209.36	-23.5662	56.3	217.394	-51.2671	36.1489	209.557	-40.1745	56.1601	221.742	-17.187	56.4595	249.439	-16.1046	20.475	266.801	-2.28069	32.8801	242.96	7.95588	19.1641	
82	0.683333	217.082	20.434	41.2575	193.216	-2.6588	51.8579	183.476	-25.8858	51.5805	184.745	-49.2983	53.4606	191.089	-20.6146	-2.89684	172.588	-31.9313	-4.11711	155.235	-44.0045	1.07402	197.076	-35.3032	0.635478	172.688	-46.2078	7.76276	160.054	-43.3304	41.721	202.593	-47.0085	18.4429	187.254	-40.4082	39.9291	200.201	-24.5377	53.3313	216.298	-49.2582	35.2585	206.779	-37.4459	56.6081	218.925	-15.7921	56.0928	247.001	-21.9323	18.0142	265.008	-4.88321	28.9596	241.876	6.80509	16.8469	
83	0.691667	224.944	20.2141	40.6584	193.59	-0.811462	52.308	186.542	-23.2503	53.6064	185.909	-47.3252	54.8603	193.946	-15.6127	-2.98865	169.163	-26.147	-5.70966	148.027	-35.3065	-2.27799	197.389	-33.7002	0.648562	170.717	-42.745	7.02439	153.683	-38.9975	33.2517	202.741	-42.2238	17.0867	182.458	-43.4127	34.5655	187.624	-20.0427	53.126	208.408	-45.5685	39.5448	202.939	-29.228	56.15	217.965	-12.062	56.2127	248.182	-24.9289	19.8955	269.055	-10.2807	34.1276	246.895	4.88497	15.5836	
84	0.7	229.674	22.1218	39.4655	198.363	5.78958	44.6081	187.118	-19.3575	44.8668	188.124	-38.4797	46.4034	190.696	-7.96166	-5.65923	169.58	-20.4765	-4.77352	147.208	-27.534	-3.02173	194.585	-26.0773	0.916101	164.371	-35.583	3.59195	143.299	-37.85	24.6682	194.157	-37.7373	18.6076	176.441	-38.676	39.0524	178.038	-17.2387	56.4964	208.705	-44.3797	38.6274	200.717	-29.8098	59.9762	217.182	-10.38	57.2553	242.913	-23.083	18.0743	266.155	-14.7488	31.7528	247.357	1.06832	16.7974	
85	0.708333	233.608	22.6992	38.4387	200.479	15.9915	41.6534	188.625	-7.13688	39.1331	182.182	-28.9698	41.8939	193.221	-2.7193	-2.49265	169.678	-10.3405	-6.04276	145.139	-16.4291	-4.71934	188.218	-20.1881	-0.48603	166.619	-27.9401	0.618849	136.33	-29.744	12.5932	191.058	-35.767	23.2649	174.018	-27.1643	39.1014	181.41	-13.5289	64.0889	201.385	-39.7106	41.1964	197.343	-26.2324	59.2962	218.815	-8.61585	57.0382	243.461	-23.7595	21.1844	266.748	-17.2401	35.9029	252.018	0.416264	20.2097	
86	0.716667	236.271	23.4967	39.5709	203.521	23.8208	44.5362	180.822	7.34217	38.8981	169.37	-11.8024	41.5662	191.859	0.717812	-3.72535	172.254	-2.84794	-4.86156	144.143	-8.88147	-4.92441	189.757	-17.6815	0.445601	163.63	-20.2547	-0.924128	135.473	-19.4456	4.57944	186.402	-29.9618	25.5421	175.544	-16.1963	45.8044	192.937	-2.48294	62.5545	198.752	-37.1353	40.135	193.998	-20.2515	57.3937	213.823	-6.48425	59.9705	239.184	-27.0662	22.1269	265.523	-23.367	34.1816	250.36	-1.92142	18.1029	
